# xmcd
#
# Track frame offsets:
#	180
#	9585
#	20366
#	31290
#	44791
#	60220
#	74670
#	84552
#	95801
#	108952
#	123264
#	138550
#	147621
#	163136
#	179496
#	200576
#	212935
#
# Disc length: 3028 seconds
#
# Revision: 0
# Processed by: cddbd v1.4PL0 Copyright (c) Steve Scherf et al.
# Submitted via: dBpowerAMP V4.0
#
DISCID=040bd211
DTITLE=Andrew Roblin and Pocono Mountain Men - Perilous Pursuit
DYEAR=1995
DGENRE=Bluegrass
TTITLE0=Plum Coulee
TTITLE1=Pocono Jubilee
TTITLE2=Freight Train Boogie
TTITLE3=Lucky Trapper's Reel
TTITLE4=Temperance Bear
TTITLE5=Doing My Time
TTITLE6=Festival du Voyageur
TTITLE7=Don't Let Your Deal Go Down
TTITLE8=Valerie's Waltz
TTITLE9=Peach Picking Time
TTITLE10=Thank You
TTITLE11=Red River Jig
TTITLE12=Broncho Buster
TTITLE13=Who's Yer Daddy
TTITLE14=Walls of Time
TTITLE15=Manitoba
TTITLE16=Ti-Jean Bouribale
EXTD=Warner Brothers Inc.
EXTT0=
EXTT1=
EXTT2=
EXTT3=
EXTT4=
EXTT5=
EXTT6=
EXTT7=
EXTT8=
EXTT9=
EXTT10=
EXTT11=
EXTT12=
EXTT13=
EXTT14=
EXTT15=
EXTT16=
PLAYORDER=
